{
  "accessors": [
    {
      "bufferView": 2,
      "componentType": 5126,
      "count": 294,
      "max": [
        4.184497356414795,
        0.8040637373924255,
        0.8043071627616882
      ],
      "min": [
        3.2597949504852295,
        -0.8040637373924255,
        -0.8038202524185181
      ],
      "type": "VEC3"
    },
    {
      "bufferView": 2,
      "byteOffset": 3528,
      "componentType": 5126,
      "count": 294,
      "max": [
        1.0,
        1.0,
        1.0
      ],
      "min": [
        -1.0,
        -1.0,
        -1.0
      ],
      "type": "VEC3"
    },
    {
      "bufferView": 3,
      "componentType": 5126,
      "count": 294,
      "max": [
        1.0,
        1.0,
        0.9915547966957092,
        1.0
      ],
      "min": [
        -1.0,
        -0.9238809943199158,
        -0.9926671385765076,
        -1.0
      ],
      "type": "VEC4"
    },
    {
      "bufferView": 1,
      "componentType": 5126,
      "count": 294,
      "max": [
        0.9466938972473145,
        0.9960824847221375
      ],
      "min": [
        0.1724170297384262,
        0.503484845161438
      ],
      "type": "VEC2"
    },
    {
      "bufferView": 0,
      "componentType": 5125,
      "count": 954,
      "type": "SCALAR"
    },
    {
      "bufferView": 2,
      "byteOffset": 7056,
      "componentType": 5126,
      "count": 135,
      "max": [
        -3.334977865219116,
        0.6977472305297852,
        0.6978743076324463
      ],
      "min": [
        -4.226061820983887,
        -0.6977473497390747,
        -0.6976202130317688
      ],
      "type": "VEC3"
    },
    {
      "bufferView": 2,
      "byteOffset": 8676,
      "componentType": 5126,
      "count": 135,
      "max": [
        3.8429419646490715e-07,
        1.0,
        1.0
      ],
      "min": [
        -1.0,
        -1.0,
        -1.0
      ],
      "type": "VEC3"
    },
    {
      "bufferView": 3,
      "byteOffset": 4704,
      "componentType": 5126,
      "count": 135,
      "max": [
        1.0,
        0.8314727544784546,
        0.8157537579536438,
        -1.0
      ],
      "min": [
        -1.0,
        -0.8157533407211304,
        -0.8112223744392395,
        -1.0
      ],
      "type": "VEC4"
    },
    {
      "bufferView": 1,
      "byteOffset": 2352,
      "componentType": 5126,
      "count": 135,
      "max": [
        0.85052889585495,
        0.9840830564498901
      ],
      "min": [
        0.006390389055013657,
        0.3039449453353882
      ],
      "type": "VEC2"
    },
    {
      "bufferView": 0,
      "byteOffset": 3816,
      "componentType": 5125,
      "count": 522,
      "type": "SCALAR"
    },
    {
      "bufferView": 2,
      "byteOffset": 10296,
      "componentType": 5126,
      "count": 98,
      "max": [
        -3.372173547744751,
        0.8032073974609375,
        0.8032068610191345
      ],
      "min": [
        -3.516244649887085,
        -0.8032061457633972,
        -0.8032066822052002
      ],
      "type": "VEC3"
    },
    {
      "bufferView": 2,
      "byteOffset": 11472,
      "componentType": 5126,
      "count": 98,
      "max": [
        1.0,
        1.0,
        1.0
      ],
      "min": [
        -1.0,
        -1.0,
        -1.0
      ],
      "type": "VEC3"
    },
    {
      "bufferView": 3,
      "byteOffset": 6864,
      "componentType": 5126,
      "count": 98,
      "max": [
        8.311296369356569e-06,
        0.7933589816093445,
        0.6087915301322937,
        1.0
      ],
      "min": [
        -1.0,
        -0.9914513230323792,
        -0.13055004179477692,
        1.0
      ],
      "type": "VEC4"
    },
    {
      "bufferView": 1,
      "byteOffset": 3432,
      "componentType": 5126,
      "count": 98,
      "max": [
        0.9833758473396301,
        0.9926496744155884
      ],
      "min": [
        0.3022176921367645,
        0.5160982608795166
      ],
      "type": "VEC2"
    },
    {
      "bufferView": 0,
      "byteOffset": 5904,
      "componentType": 5125,
      "count": 276,
      "type": "SCALAR"
    },
    {
      "bufferView": 2,
      "byteOffset": 12648,
      "componentType": 5126,
      "count": 51,
      "max": [
        -0.1694401204586029,
        0.2543862462043762,
        0.9508112668991089
      ],
      "min": [
        -0.6782126426696777,
        -0.2543862462043762,
        0.4464746117591858
      ],
      "type": "VEC3"
    },
    {
      "bufferView": 2,
      "byteOffset": 13260,
      "componentType": 5126,
      "count": 51,
      "max": [
        1.0,
        1.0,
        0.8981842398643494
      ],
      "min": [
        -1.0,
        -1.0,
        0.0
      ],
      "type": "VEC3"
    },
    {
      "bufferView": 3,
      "byteOffset": 8432,
      "componentType": 5126,
      "count": 51,
      "max": [
        0.8909701704978943,
        0.8981838226318359,
        1.0,
        1.0
      ],
      "min": [
        -0.8981836438179016,
        -0.9722398519515991,
        -0.4212740361690521,
        1.0
      ],
      "type": "VEC4"
    },
    {
      "bufferView": 1,
      "byteOffset": 4216,
      "componentType": 5126,
      "count": 51,
      "max": [
        0.8370145559310913,
        0.9818907380104065
      ],
      "min": [
        0.07784831523895264,
        0.7307858467102051
      ],
      "type": "VEC2"
    },
    {
      "bufferView": 0,
      "byteOffset": 7008,
      "componentType": 5125,
      "count": 174,
      "type": "SCALAR"
    },
    {
      "bufferView": 2,
      "byteOffset": 13872,
      "componentType": 5126,
      "count": 22,
      "max": [
        -1.23990797996521,
        0.7834445834159851,
        0.814842700958252
      ],
      "min": [
        -3.1663689613342285,
        -0.7834448218345642,
        0.21368378400802612
      ],
      "type": "VEC3"
    },
    {
      "bufferView": 2,
      "byteOffset": 14136,
      "componentType": 5126,
      "count": 22,
      "max": [
        -2.803512622051585e-08,
        0.9238793849945068,
        1.0
      ],
      "min": [
        -1.7909799510107405e-07,
        -0.923879861831665,
        0.38268277049064636
      ],
      "type": "VEC3"
    },
    {
      "bufferView": 3,
      "byteOffset": 9248,
      "componentType": 5126,
      "count": 22,
      "max": [
        3.14461931338883e-06,
        -0.38268277049064636,
        0.9238793253898621,
        1.0
      ],
      "min": [
        -4.848838671023259e-06,
        -1.0,
        -0.923879861831665,
        1.0
      ],
      "type": "VEC4"
    },
    {
      "bufferView": 1,
      "byteOffset": 4624,
      "componentType": 5126,
      "count": 22,
      "max": [
        0.2301807701587677,
        0.28399980068206787
      ],
      "min": [
        0.005510088987648487,
        0.013470293022692204
      ],
      "type": "VEC2"
    },
    {
      "bufferView": 0,
      "byteOffset": 7704,
      "componentType": 5125,
      "count": 60,
      "type": "SCALAR"
    },
    {
      "bufferView": 2,
      "byteOffset": 14400,
      "componentType": 5126,
      "count": 124,
      "max": [
        3.3065004348754883,
        0.8018848896026611,
        0.8021488189697266
      ],
      "min": [
        -3.3612852096557617,
        -0.8018848299980164,
        -0.8016212582588196
      ],
      "type": "VEC3"
    },
    {
      "bufferView": 2,
      "byteOffset": 15888,
      "componentType": 5126,
      "count": 124,
      "max": [
        1.0,
        1.0,
        1.0
      ],
      "min": [
        -1.0,
        -1.0,
        -1.0
      ],
      "type": "VEC3"
    },
    {
      "bufferView": 3,
      "byteOffset": 9600,
      "componentType": 5126,
      "count": 124,
      "max": [
        2.0841638615820557e-05,
        1.0,
        0.1305357962846756,
        1.0
      ],
      "min": [
        -1.0,
        -2.7290008119962295e-07,
        -1.455747593581691e-07,
        1.0
      ],
      "type": "VEC4"
    },
    {
      "bufferView": 1,
      "byteOffset": 4800,
      "componentType": 5126,
      "count": 124,
      "max": [
        0.9894696474075317,
        0.9822773933410645
      ],
      "min": [
        0.24886634945869446,
        0.008603662252426147
      ],
      "type": "VEC2"
    },
    {
      "bufferView": 0,
      "byteOffset": 7944,
      "componentType": 5125,
      "count": 354,
      "type": "SCALAR"
    }
  ],
  "asset": {
    "extras": {
      "author": "DAR_win (https://sketchfab.com/DAR_win)",
      "license": "CC-BY-4.0 (http://creativecommons.org/licenses/by/4.0/)",
      "source": "https://sketchfab.com/3d-models/laser-pointer-e290c87954774e3eb26fcc550e2b6b37",
      "title": "Laser pointer"
    },
    "generator": "Sketchfab-12.65.0",
    "version": "2.0"
  },
  "bufferViews": [
    {
      "buffer": 0,
      "byteLength": 9360,
      "name": "floatBufferViews",
      "target": 34963
    },
    {
      "buffer": 0,
      "byteLength": 5792,
      "byteOffset": 9360,
      "byteStride": 8,
      "name": "floatBufferViews",
      "target": 34962
    },
    {
      "buffer": 0,
      "byteLength": 17376,
      "byteOffset": 15152,
      "byteStride": 12,
      "name": "floatBufferViews",
      "target": 34962
    },
    {
      "buffer": 0,
      "byteLength": 11584,
      "byteOffset": 32528,
      "byteStride": 16,
      "name": "floatBufferViews",
      "target": 34962
    }
  ],
  "buffers": [
    {
      "byteLength": 44112,
      "uri": "scene.bin"
    }
  ],
  "images": [
    {
      "uri": "textures/TT_checker_1024x1024_UV_GRID_baseColor.png"
    },
    {
      "uri": "textures/TT_checker_1024x1024_UV_GRID_metallicRoughness.png"
    },
    {
      "uri": "textures/TT_checker_1024x1024_UV_GRID_normal.png"
    }
  ],
  "materials": [
    {
      "doubleSided": true,
      "name": "TT_checker_1024x1024_UV_GRID",
      "normalTexture": {
        "index": 2
      },
      "pbrMetallicRoughness": {
        "baseColorTexture": {
          "index": 0
        },
        "metallicRoughnessTexture": {
          "index": 1
        }
      }
    }
  ],
  "meshes": [
    {
      "name": "Bottom.002_TT_checker_1024x1024_UV_GRID_0",
      "primitives": [
        {
          "attributes": {
            "NORMAL": 1,
            "POSITION": 0,
            "TANGENT": 2,
            "TEXCOORD_0": 3
          },
          "indices": 4,
          "material": 0,
          "mode": 4
        }
      ]
    },
    {
      "name": "Top.001_TT_checker_1024x1024_UV_GRID_0",
      "primitives": [
        {
          "attributes": {
            "NORMAL": 6,
            "POSITION": 5,
            "TANGENT": 7,
            "TEXCOORD_0": 8
          },
          "indices": 9,
          "material": 0,
          "mode": 4
        }
      ]
    },
    {
      "name": "Top_ring.002_TT_checker_1024x1024_UV_GRID_0",
      "primitives": [
        {
          "attributes": {
            "NORMAL": 11,
            "POSITION": 10,
            "TANGENT": 12,
            "TEXCOORD_0": 13
          },
          "indices": 14,
          "material": 0,
          "mode": 4
        }
      ]
    },
    {
      "name": "Button.002_TT_checker_1024x1024_UV_GRID_0",
      "primitives": [
        {
          "attributes": {
            "NORMAL": 16,
            "POSITION": 15,
            "TANGENT": 17,
            "TEXCOORD_0": 18
          },
          "indices": 19,
          "material": 0,
          "mode": 4
        }
      ]
    },
    {
      "name": "Label.001_TT_checker_1024x1024_UV_GRID_0",
      "primitives": [
        {
          "attributes": {
            "NORMAL": 21,
            "POSITION": 20,
            "TANGENT": 22,
            "TEXCOORD_0": 23
          },
          "indices": 24,
          "material": 0,
          "mode": 4
        }
      ]
    },
    {
      "name": "Base.003_TT_checker_1024x1024_UV_GRID_0",
      "primitives": [
        {
          "attributes": {
            "NORMAL": 26,
            "POSITION": 25,
            "TANGENT": 27,
            "TEXCOORD_0": 28
          },
          "indices": 29,
          "material": 0,
          "mode": 4
        }
      ]
    }
  ],
  "nodes": [
    {
      "children": [
        1
      ],
      "matrix": [
        1.0,
        0.0,
        0.0,
        0.0,
        0.0,
        2.220446049250313e-16,
        -1.0,
        0.0,
        0.0,
        1.0,
        2.220446049250313e-16,
        0.0,
        0.0,
        0.0,
        0.0,
        1.0
      ],
      "name": "Sketchfab_model"
    },
    {
      "children": [
        2
      ],
      "matrix": [
        1.0,
        0.0,
        0.0,
        0.0,
        0.0,
        0.0,
        1.0,
        0.0,
        0.0,
        -1.0,
        0.0,
        0.0,
        0.0,
        0.0,
        0.0,
        1.0
      ],
      "name": "Laser_LP.fbx"
    },
    {
      "children": [
        3,
        5,
        7,
        9,
        11,
        13
      ],
      "name": "RootNode"
    },
    {
      "children": [
        4
      ],
      "matrix": [
        100.0,
        0.0,
        0.0,
        0.0,
        0.0,
        -1.629206793918314e-05,
        -99.99999999999868,
        0.0,
        0.0,
        99.99999999999868,
        -1.629206793918314e-05,
        0.0,
        0.0,
        0.0,
        0.0,
        1.0
      ],
      "name": "Bottom.002"
    },
    {
      "mesh": 0,
      "name": "Bottom.002_TT_checker_1024x1024_UV_GRID_0"
    },
    {
      "children": [
        6
      ],
      "matrix": [
        100.0,
        0.0,
        0.0,
        0.0,
        0.0,
        -1.629206793918314e-05,
        -99.99999999999868,
        0.0,
        0.0,
        99.99999999999868,
        -1.629206793918314e-05,
        0.0,
        0.0,
        0.0,
        0.0,
        1.0
      ],
      "name": "Top.001"
    },
    {
      "mesh": 1,
      "name": "Top.001_TT_checker_1024x1024_UV_GRID_0"
    },
    {
      "children": [
        8
      ],
      "matrix": [
        100.0,
        0.0,
        0.0,
        0.0,
        0.0,
        -1.629206793918314e-05,
        -99.99999999999868,
        0.0,
        0.0,
        99.99999999999868,
        -1.629206793918314e-05,
        0.0,
        0.0,
        0.0,
        0.0,
        1.0
      ],
      "name": "Top_ring.002"
    },
    {
      "mesh": 2,
      "name": "Top_ring.002_TT_checker_1024x1024_UV_GRID_0"
    },
    {
      "children": [
        10
      ],
      "matrix": [
        100.0,
        0.0,
        0.0,
        0.0,
        0.0,
        -1.629206793918314e-05,
        -99.99999999999868,
        0.0,
        0.0,
        99.99999999999868,
        -1.629206793918314e-05,
        0.0,
        0.0,
        0.0,
        0.0,
        1.0
      ],
      "name": "Button.002"
    },
    {
      "mesh": 3,
      "name": "Button.002_TT_checker_1024x1024_UV_GRID_0"
    },
    {
      "children": [
        12
      ],
      "matrix": [
        100.0,
        0.0,
        0.0,
        0.0,
        0.0,
        -1.629206793918314e-05,
        -99.99999999999868,
        0.0,
        0.0,
        99.99999999999868,
        -1.629206793918314e-05,
        0.0,
        0.0,
        0.0,
        0.0,
        1.0
      ],
      "name": "Label.001"
    },
    {
      "mesh": 4,
      "name": "Label.001_TT_checker_1024x1024_UV_GRID_0"
    },
    {
      "children": [
        14
      ],
      "matrix": [
        100.0,
        0.0,
        0.0,
        0.0,
        0.0,
        -1.629206793918314e-05,
        -99.99999999999868,
        0.0,
        0.0,
        99.99999999999868,
        -1.629206793918314e-05,
        0.0,
        0.0,
        0.0,
        0.0,
        1.0
      ],
      "name": "Base.003"
    },
    {
      "mesh": 5,
      "name": "Base.003_TT_checker_1024x1024_UV_GRID_0"
    }
  ],
  "samplers": [
    {
      "magFilter": 9729,
      "minFilter": 9987,
      "wrapS": 10497,
      "wrapT": 10497
    }
  ],
  "scene": 0,
  "scenes": [
    {
      "name": "Sketchfab_Scene",
      "nodes": [
        0
      ]
    }
  ],
  "textures": [
    {
      "sampler": 0,
      "source": 0
    },
    {
      "sampler": 0,
      "source": 1
    },
    {
      "sampler": 0,
      "source": 2
    }
  ]
}
